<?xml version="1.0" encoding="UTF-8"?>
<!DOCTYPE svg PUBLIC "-//W3C//DTD SVG 1.1//EN" "http://www.w3.org/Graphics/SVG/1.1/DTD/svg11.dtd">
<svg version="1.1" xmlns="http://www.w3.org/2000/svg" xmlns:xlink="http://www.w3.org/1999/xlink" x="0" y="0" width="575" height="500" viewBox="0, 0, 575, 500">
  <g id="Layer_1">
    <path d="M465.205,494.805 C462.275,494.805 459.482,493.518 457.577,491.27 C455.574,488.907 454.78,485.749 455.426,482.719 L477.842,377.571 C466.398,369.579 440.881,350.501 427.051,330.344 C403.065,338.608 330.533,359.38 268.167,333.782 C263.058,331.685 260.616,325.844 262.713,320.734 C264.809,315.626 270.652,313.183 275.761,315.28 C342.647,342.731 426.718,309.195 427.557,308.853 C432.35,306.906 437.832,308.931 440.205,313.523 C450.445,333.321 482.838,357.158 494.455,364.672 C497.938,366.925 499.672,371.097 498.807,375.155 L479.393,466.217 C482.71,459.805 487.318,455.105 490.342,452.459 C493.171,442.574 502.265,411.559 510.898,390.361 C515.938,377.983 514.165,371.305 512.364,369.245 C509.833,367.859 508.546,365.716 507.952,362.839 C507.338,359.863 508.688,357.113 510.63,354.775 C545.546,312.733 553.546,220.727 548.129,169.424 C547.784,170.47 547.458,171.516 547.159,172.545 C545.892,176.899 541.826,179.875 537.319,179.747 C532.785,179.639 528.892,176.494 527.834,172.084 C524.454,158.046 518.868,143.44 514.766,137.225 C512.374,143.38 510.268,156.408 510.008,168.143 C509.906,172.788 506.617,176.748 502.077,177.706 C501.887,180.438 501.771,183.432 501.769,186.237 C501.767,189.615 500.06,192.766 497.229,194.61 C494.401,196.453 490.83,196.748 487.739,195.386 C460.009,183.176 401.656,191.223 359.05,197.098 C334.917,200.426 314.071,203.297 300.763,202.636 C260.883,200.646 205.338,135.032 199.135,127.557 C195.877,123.631 196.098,117.881 199.648,114.215 C206.914,106.711 214.945,97.856 220.509,91.162 C198.433,90.661 182.616,103.326 181.831,103.967 C179.176,106.128 175.564,106.81 172.318,105.73 C147.787,97.555 110.868,103.04 110.499,103.096 C106.727,103.671 102.953,102.05 100.776,98.918 C100.672,98.77 91.893,86.456 79.648,80.43 C82.585,84.896 86.32,90.032 90.151,94.754 C91.9,96.91 92.675,99.697 92.288,102.447 C91.901,105.196 90.389,107.662 88.113,109.252 C63.917,126.175 25.526,160.304 25.526,179.828 C25.526,188.037 32.673,200.478 48.638,209.77 C62.246,217.689 99.703,232.81 153.461,202.266 C158.262,199.539 164.367,201.219 167.096,206.02 C169.824,210.822 168.143,216.926 163.342,219.655 C139.75,233.06 116.063,240.065 92.94,240.475 C73.059,240.795 54.268,236.186 38.578,227.056 C18.19,215.191 5.526,197.095 5.526,179.828 C5.526,163.43 17.494,144.229 42.113,121.126 C51.919,111.924 61.641,104.117 68.267,99.052 C66.853,97.117 65.326,94.967 63.826,92.738 C54.415,78.761 51.963,70.767 55.079,64.226 C57.181,59.815 61.565,57.18 66.807,57.18 C88.829,57.18 105.983,73.975 113.329,82.584 C124.941,81.311 151.519,79.407 173.628,85.262 C183.493,78.746 208.358,65.593 238.869,73.728 C242.624,74.733 245.477,77.553 246.507,81.275 C248.189,87.358 245.926,92.761 229.85,110.985 C226.459,114.831 223.062,118.533 220.288,121.508 C242.778,147 280.262,181.588 301.759,182.661 C313.212,183.233 334.145,180.345 356.317,177.286 C397.908,171.551 448.407,164.588 482.418,172.69 C482.997,166.331 484.212,157.217 490.984,153.948 C491.292,151.139 491.695,148.1 492.223,145.041 C493.459,137.863 497.221,116.02 513.048,114.9 C526.328,113.957 534.323,129.482 539.247,141.977 C542.271,138.34 546.296,135.545 551.614,135.988 C564.411,137.039 566.514,154.57 567.643,163.989 C570.276,185.943 570.988,223.641 565.085,263.601 C560.751,292.942 551.324,332.718 530.886,361.234 C534.483,368.215 536.733,379.949 529.421,397.904 C519.68,421.823 508.837,460.542 508.729,460.93 C508.098,463.189 506.693,465.155 504.761,466.483 C504.718,466.515 494.767,473.689 495.337,483.3 C495.495,485.971 494.576,488.595 492.785,490.583 C490.994,492.571 488.481,493.758 485.808,493.88 L465.659,494.794 C465.508,494.801 465.357,494.805 465.205,494.805" fill="#4B3515"/>
    <path d="M218.855,353.776 C217.807,353.776 216.741,353.61 215.691,353.26 C198.299,347.461 179.907,327.728 166.8,311.016 C165.914,312.015 164.821,312.842 163.561,313.433 C159.791,315.195 155.323,314.441 152.343,311.535 C113.329,273.504 110.947,230.629 110.865,228.822 C110.613,223.306 114.882,218.629 120.399,218.378 C125.934,218.101 130.573,222.377 130.842,227.877 C130.87,228.359 132.358,250.724 148.685,275.809 C149.869,273.625 151.857,271.895 154.346,271.074 C158.715,269.633 163.506,271.358 165.951,275.257 C174.86,289.445 202.303,327.714 222.018,334.287 C227.257,336.034 230.088,341.697 228.341,346.937 C226.944,351.126 223.042,353.776 218.855,353.776" fill="#4B3515"/>
    <path d="M235.342,484.727 C235.176,484.727 235.009,484.722 234.841,484.714 L216.513,483.8 C213.487,483.649 210.692,482.134 208.914,479.681 C207.161,477.264 206.582,474.189 207.331,471.302 C209.205,462.303 212.63,370.753 214.352,315.058 C214.521,309.538 219.116,305.228 224.655,305.372 C230.176,305.543 234.513,310.156 234.342,315.676 C233.43,345.204 230.622,431.545 228.061,464.351 L228.658,464.38 C234.295,450.429 238.52,442.648 241.657,438.194 C238.088,422.364 232.857,376.947 267.775,313.307 C270.431,308.465 276.509,306.691 281.353,309.35 C286.194,312.007 287.966,318.086 285.309,322.928 C247.143,392.486 261.999,437.035 262.153,437.477 C263.738,441.817 262.116,446.556 258.395,449.093 C255.584,452.491 249.02,466.941 244.68,478.297 C243.194,482.183 239.468,484.727 235.342,484.727" fill="#4B3515"/>
    <path d="M191.37,461.836 C188.648,461.836 186.038,460.726 184.148,458.754 C182.18,456.698 181.18,453.901 181.4,451.063 L190.557,332.923 C190.982,327.416 195.81,323.287 201.299,323.725 C206.806,324.152 210.923,328.962 210.496,334.468 L202.204,441.457 L217.581,440.928 C223.133,440.749 227.728,445.059 227.919,450.578 C228.108,456.098 223.788,460.726 218.269,460.916 L191.714,461.83 C191.6,461.834 191.484,461.836 191.37,461.836" fill="#4B3515"/>
    <path d="M442.322,470.078 C442.032,470.078 441.741,470.066 441.447,470.04 L420.377,468.204 C417.402,467.945 414.7,466.371 413.007,463.911 C411.314,461.451 410.81,458.364 411.63,455.494 L429.13,394.272 C421.737,390.59 411.273,383.104 395.56,368.044 C381.668,354.728 370.253,341.741 369.773,341.195 C366.133,337.043 366.547,330.726 370.698,327.084 C374.849,323.442 381.169,323.857 384.809,328.007 C384.922,328.135 396.209,340.972 409.491,353.692 C433.918,377.089 441.581,377.724 441.896,377.739 C444.943,377.89 447.755,379.424 449.531,381.904 C451.309,384.385 451.854,387.541 451.017,390.475 L434.192,449.332 L435.42,449.439 C437.611,444.197 441.2,437.477 446.623,432.28 L471.401,365.042 C473.311,359.86 479.057,357.203 484.242,359.117 C489.424,361.026 492.077,366.775 490.167,371.958 L464.518,441.559 C463.889,443.268 462.806,444.772 461.384,445.909 C455.974,450.238 452.618,460.103 452.016,462.509 C450.893,466.988 446.867,470.078 442.322,470.078" fill="#4B3515"/>
    <path d="M147.761,172.172 C137.284,172.172 128.761,163.652 128.761,153.18 C128.761,142.703 137.284,134.179 147.761,134.179 C158.233,134.179 166.753,142.703 166.753,153.18 C166.753,163.652 158.233,172.172 147.761,172.172 z M147.761,152.172 C147.205,152.172 146.753,152.624 146.753,153.18 C146.753,153.731 147.205,154.18 147.761,154.18 C148.303,154.18 148.76,153.722 148.76,153.18 C148.76,152.624 148.312,152.172 147.761,152.172" fill="#4B3515"/>
    <path d="M56.206,189.055 C54.493,189.055 52.79,188.614 51.268,187.75 L40.964,181.898 C36.161,179.172 34.478,173.067 37.206,168.265 C39.934,163.461 46.039,161.78 50.839,164.508 L57.207,168.123 L66.577,164.873 C71.797,163.062 77.492,165.826 79.302,171.043 C81.112,176.26 78.35,181.958 73.132,183.767 L59.483,188.502 C58.418,188.872 57.311,189.055 56.206,189.055" fill="#4B3515"/>
    <path d="M82.39,220.808 C81.136,220.808 79.861,220.57 78.628,220.068 C69.332,216.29 54.091,210.108 52.769,209.609 L52.844,209.635 C45.598,207.016 45.925,199.757 46.082,196.255 C46.169,194.312 46.353,191.672 46.627,188.412 C47.084,182.981 47.635,177.685 47.658,177.463 C48.23,171.97 53.14,167.985 58.641,168.554 C64.135,169.127 68.123,174.044 67.551,179.537 C67.065,184.195 66.58,189.533 66.289,193.482 C70.181,195.054 76.348,197.552 86.159,201.541 C91.275,203.62 93.737,209.454 91.657,214.57 C90.079,218.453 86.338,220.806 82.39,220.808" fill="#4B3515"/>
    <path d="M41.178,223.859 C38.455,223.859 35.743,222.755 33.77,220.58 C30.057,216.489 30.365,210.165 34.455,206.454 L49.486,192.813 C53.573,189.103 59.9,189.408 63.611,193.498 C67.323,197.589 67.016,203.913 62.926,207.624 L47.894,221.265 C45.98,223.002 43.575,223.859 41.178,223.859" fill="#4B3515"/>
    <path d="M128.155,99.602 C123.086,99.602 118.741,95.762 118.218,90.611 C118.081,89.265 117.981,87.877 117.915,86.454 C117.748,87.906 117.619,89.227 117.526,90.389 C117.088,95.891 112.286,99.988 106.77,99.567 C101.268,99.133 97.157,94.325 97.588,88.821 C98.099,82.285 103.472,24.447 134.175,6.757 C137.712,4.719 142.132,5.037 145.342,7.558 C148.553,10.078 149.908,14.298 148.768,18.218 C148.637,18.671 135.605,63.846 138.116,88.592 C138.674,94.086 134.672,98.993 129.177,99.55 C128.834,99.585 128.492,99.602 128.155,99.602" fill="#4B3515"/>
    <path d="M173.503,105.555 C168.21,105.555 163.792,101.402 163.523,96.057 C163.081,87.273 167.107,73.377 172.117,59.825 C161.034,75.647 159.739,90.688 159.667,91.664 C159.314,97.176 154.553,101.335 149.053,100.982 C143.541,100.631 139.359,95.852 139.711,90.34 C139.838,88.348 143.395,41.261 193.34,16.538 C197.174,14.64 201.789,15.392 204.823,18.405 C207.857,21.419 208.64,26.03 206.767,29.876 C196.777,50.409 182.952,84.206 183.498,95.051 C183.775,100.567 179.529,105.265 174.013,105.542 C173.843,105.55 173.672,105.555 173.503,105.555" fill="#4B3515"/>
    <path d="M128.151,89.609 L128.253,91.406 C116.948,92.015 108.948,93.211 108.948,93.211 C108.948,93.211 108.151,92.109 106.753,90.312 L107.55,89.609 C107.55,89.609 112.151,31.008 139.151,15.414 C139.151,15.414 125.448,62.609 128.151,89.609" fill="#C1A765"/>
    <path d="M173.55,95.609 C166.05,93.312 157.651,92.211 149.557,91.617 L149.651,91.008 C149.651,91.008 152.456,48.008 197.651,25.609 C196.253,28.617 172.55,77.812 173.55,95.508 L173.55,95.609" fill="#C1A765"/>
    <path d="M201.05,333.008 C207.058,338.008 213.05,341.914 218.855,343.812 L223.448,344.015 C222.347,374.609 220.651,422.507 219.042,450.914 L217.948,450.914 L191.354,451.804 L200.55,333.711 L201.05,333.008" fill="#FFFDE8"/>
    <path d="M455.151,438.109 C445.948,445.414 442.347,460.109 442.347,460.109 L421.253,458.211 L441.354,387.711 C423.05,386.805 377.245,334.609 377.245,334.609 L376.847,332.507 C408.651,327.32 431.354,318.109 431.354,318.109 C441.448,337.711 468.05,358.312 481.253,367.812 L480.753,368.508 L455.151,438.109" fill="#FFFDE8"/>
    <path d="M219.042,450.914 C220.651,422.507 222.347,374.609 223.448,344.015 L218.855,343.812 C213.05,341.914 207.058,338.008 201.05,333.008 C178.651,314.305 157.456,280.609 157.456,280.609 L159.347,304.414 C122.651,268.711 120.854,228.414 120.854,228.414 L120.354,226.516 C59.042,242.32 15.55,206.617 15.55,179.82 C15.55,147.813 82.347,101.008 82.347,101.008 C82.347,101.008 54.956,67.211 66.846,67.211 C85.948,67.211 101.253,83.617 106.753,90.312 C108.151,92.109 108.948,93.211 108.948,93.211 C108.948,93.211 116.948,92.015 128.253,91.406 C134.557,91.211 141.948,91.117 149.557,91.617 C157.651,92.211 166.05,93.312 173.55,95.609 C174.253,95.812 174.846,96.008 175.448,96.211 C175.448,96.211 201.948,74.211 236.253,83.414 C241.948,84.914 206.847,121.211 206.847,121.211 C206.847,121.211 264.651,190.812 301.253,192.609 C337.948,194.515 445.948,166.117 491.753,186.211 C491.753,186.211 491.753,149.609 500.05,167.914 C500.05,167.913 500.948,125.812 513.753,124.914 C526.542,123.906 537.55,169.711 537.55,169.711 C537.55,169.711 552.245,119.414 557.745,165.211 C563.253,210.914 558.651,312.609 518.354,361.211 C518.354,361.211 530.245,369.414 520.151,394.117 C510.05,418.812 499.042,458.211 499.042,458.211 C499.042,458.211 484.448,468.312 485.354,483.906 L465.245,484.82 L489.042,373.109 C489.042,373.109 486.05,371.117 481.253,367.812 C468.05,358.312 441.448,337.711 431.354,318.109 C431.354,318.109 408.651,327.32 376.847,332.507 C346.448,337.609 307.854,338.906 272.948,324.914 C236.448,396.117 252.745,440.812 252.745,440.812 C247.245,443.617 235.355,474.711 235.355,474.711 L217.057,473.812 C217.651,471.617 218.253,463.109 219.042,450.914 z M156.753,153.211 C156.753,148.211 152.745,144.211 147.745,144.211 C142.745,144.211 138.753,148.211 138.753,153.211 C138.753,158.109 142.745,162.211 147.745,162.211 C152.745,162.211 156.753,158.109 156.753,153.211" fill="#FFFDE8"/>
    <path d="M147.745,144.211 C152.745,144.211 156.753,148.211 156.753,153.211 C156.753,158.109 152.745,162.211 147.745,162.211 C142.745,162.211 138.753,158.109 138.753,153.211 C138.753,148.211 142.745,144.211 147.745,144.211" fill="#4B3515"/>
    <path d="M465.206,488.554 C464.106,488.554 463.06,488.072 462.346,487.229 C461.593,486.343 461.296,485.159 461.538,484.023 L484.826,374.786 C475.996,368.845 443.241,345.837 429.624,322.783 C422.469,325.424 403.654,331.824 379.063,336.016 C350.378,340.905 308.264,343.483 270.54,328 C268.624,327.214 267.708,325.023 268.495,323.107 C269.282,321.19 271.475,320.276 273.388,321.063 C342.609,349.474 429.047,314.996 429.911,314.643 C431.708,313.915 433.764,314.672 434.654,316.394 C447.767,341.747 490.63,369.641 491.061,369.921 C492.368,370.765 493.018,372.33 492.694,373.852 L469.886,480.839 L481.647,480.304 C482.654,467.43 492.429,458.679 495.833,456.002 C497.791,449.107 507.652,414.9 516.687,392.718 C525.342,371.464 516.511,364.492 516.131,364.206 C515.265,363.607 514.722,362.694 514.579,361.652 C514.437,360.61 514.767,359.577 515.438,358.768 C556.187,309.702 559.009,207.455 553.99,165.626 C552.734,155.149 551.134,151.375 550.36,150.1 C547.972,152.417 543.832,161.626 541.158,170.799 C540.681,172.432 539.161,173.535 537.468,173.498 C535.768,173.458 534.308,172.279 533.911,170.626 C533.884,170.513 531.154,159.229 526.936,148.254 C519.46,128.799 514.539,128.59 514.019,128.615 C508.475,129.008 504.164,149.688 503.76,168.005 C503.721,169.757 502.475,171.248 500.758,171.596 C499.102,171.934 497.452,171.13 496.685,169.655 C496.002,173.667 495.519,180.039 495.518,186.234 C495.518,187.502 494.878,188.682 493.817,189.375 C492.755,190.065 491.417,190.177 490.258,189.666 C460.907,176.746 403.957,184.598 358.196,190.907 C334.377,194.192 313.805,197.027 301.074,196.393 C263.222,194.505 206.348,126.462 203.945,123.566 C202.723,122.094 202.805,119.937 204.138,118.563 C215.608,106.72 228.264,92.349 232.077,86.239 C201.592,79.832 178.116,98.927 177.874,99.128 C176.877,99.955 175.524,100.209 174.294,99.8 C148.294,91.135 109.94,96.858 109.556,96.918 C108.132,97.127 106.724,96.526 105.908,95.351 C105.742,95.113 89.045,71.546 67.642,70.941 C68.548,75.342 76.246,87.535 85.298,98.692 C85.954,99.501 86.244,100.546 86.099,101.576 C85.954,102.607 85.387,103.532 84.534,104.129 C66.383,116.815 19.276,155.145 19.276,179.828 C19.276,192.03 29.567,205.902 45.494,215.171 C60.037,223.635 99.972,239.847 156.549,207.7 C158.353,206.677 160.639,207.309 161.662,209.108 C162.685,210.909 162.055,213.198 160.254,214.222 C137.581,227.104 114.897,233.835 92.829,234.227 C74.081,234.561 56.425,230.211 41.721,221.653 C23.251,210.904 11.776,194.878 11.776,179.828 C11.776,150.036 63.31,110.329 77.015,100.296 C74.975,97.65 71.944,93.605 69.01,89.248 C59.242,74.74 59.339,69.817 60.722,66.915 C61.22,65.867 62.812,63.43 66.807,63.43 C88.887,63.43 105.803,82.924 110.67,89.191 C119.335,88.07 150.688,84.77 174.75,92.075 C181.294,87.284 206.039,71.441 237.259,79.767 C238.846,80.192 240.05,81.379 240.482,82.942 C241.236,85.667 240.605,89.346 225.164,106.85 C220.048,112.651 214.812,118.232 211.883,121.315 C222.617,133.727 270.724,187.37 301.447,188.903 C313.481,189.491 333.725,186.71 357.172,183.477 C401.4,177.38 455.876,169.87 488.1,180.797 C488.745,160.486 493.046,159.565 494.966,159.152 C495.605,159.016 496.206,159.003 496.767,159.086 C497.08,155.33 497.582,150.744 498.382,146.102 C501.185,129.822 506.127,121.655 513.488,121.135 C520.853,120.6 527.346,128.393 533.961,145.626 C535.496,149.625 536.829,153.614 537.92,157.13 C541.364,148.703 545.806,141.778 551.103,142.217 C556.579,142.667 559.573,149.19 561.437,164.733 C566.494,206.888 563.611,309.115 523.302,360.954 C526.851,365.577 531.53,376.155 523.632,395.547 C513.76,419.787 502.818,458.858 502.709,459.25 C502.472,460.098 501.945,460.835 501.221,461.333 C501.1,461.417 488.315,470.459 489.097,483.669 C489.157,484.671 488.812,485.654 488.141,486.4 C487.47,487.145 486.527,487.591 485.525,487.637 L465.376,488.551 C465.319,488.553 465.263,488.554 465.206,488.554" fill="#4B3515"/>
    <path d="M218.855,347.524 C218.462,347.524 218.061,347.462 217.668,347.331 C197.249,340.522 174.207,311.252 162.316,294.458 L163.063,304.085 C163.182,305.642 162.326,307.109 160.913,307.771 C159.499,308.433 157.824,308.149 156.706,307.06 C119.44,270.732 117.186,230.244 117.108,228.538 C117.013,226.469 118.615,224.715 120.684,224.621 C122.75,224.516 124.503,226.124 124.601,228.191 C124.618,228.551 126.576,262.039 154.769,294.138 L153.74,280.86 C153.607,279.139 154.666,277.551 156.304,277.009 C157.945,276.467 159.74,277.116 160.656,278.577 C160.988,279.106 194.151,331.584 220.041,340.216 C222.006,340.871 223.067,342.995 222.412,344.96 C221.888,346.53 220.425,347.524 218.855,347.524" fill="#4B3515"/>
    <path d="M235.34,478.476 C235.277,478.476 235.215,478.474 235.152,478.472 L216.824,477.557 C215.69,477.501 214.641,476.934 213.974,476.013 C213.307,475.094 213.094,473.921 213.393,472.825 C215.325,465.745 218.761,374.712 220.599,315.251 C220.662,313.181 222.363,311.59 224.463,311.619 C226.532,311.682 228.159,313.413 228.095,315.483 C227.661,329.527 224.049,444.439 221.304,470.271 L232.818,470.845 C236.905,460.381 243.247,445.567 248.452,439.685 C245.421,428.827 236.435,383.419 273.254,316.313 C274.251,314.497 276.532,313.836 278.345,314.829 C280.161,315.826 280.826,318.105 279.83,319.921 C239.907,392.681 256.092,439.097 256.26,439.557 C256.914,441.348 256.12,443.344 254.414,444.198 C251.713,446.023 244.156,462.163 238.842,476.065 C238.285,477.522 236.887,478.476 235.34,478.476" fill="#4B3515"/>
    <path d="M191.37,455.586 C190.349,455.586 189.371,455.17 188.662,454.429 C187.924,453.659 187.549,452.61 187.631,451.546 L196.787,333.405 C196.948,331.341 198.768,329.815 200.817,329.956 C202.881,330.116 204.425,331.92 204.266,333.985 L195.433,447.944 L217.796,447.174 C219.905,447.111 221.6,448.722 221.673,450.793 C221.744,452.862 220.124,454.599 218.053,454.67 L191.499,455.584 C191.456,455.585 191.413,455.586 191.37,455.586" fill="#4B3515"/>
    <path d="M442.318,463.828 C442.209,463.828 442.1,463.823 441.99,463.813 L420.92,461.977 C419.804,461.881 418.791,461.29 418.156,460.368 C417.522,459.445 417.332,458.288 417.64,457.212 L436.69,390.564 C415.925,383.814 378.922,342.146 374.473,337.074 C373.108,335.517 373.263,333.148 374.819,331.782 C376.378,330.416 378.746,330.572 380.111,332.129 C397.416,351.856 429.407,383.378 441.587,383.981 C442.73,384.038 443.784,384.613 444.45,385.543 C445.116,386.473 445.321,387.657 445.007,388.757 L426.101,454.901 L439.607,456.078 C441.229,451.243 445.068,441.856 451.963,435.865 L477.266,367.203 C477.98,365.259 480.138,364.261 482.081,364.981 C484.025,365.697 485.018,367.853 484.303,369.797 L458.654,439.398 C458.418,440.039 458.012,440.602 457.478,441.029 C449.411,447.485 445.986,460.855 445.953,460.989 C445.532,462.67 444.022,463.828 442.318,463.828" fill="#4B3515"/>
    <path d="M147.761,165.922 C140.73,165.922 135.011,160.206 135.011,153.18 C135.011,146.149 140.73,140.43 147.761,140.43 C154.787,140.43 160.503,146.149 160.503,153.18 C160.503,160.206 154.787,165.922 147.761,165.922 z M147.761,147.93 C144.866,147.93 142.511,150.285 142.511,153.18 C142.511,156.07 144.866,158.422 147.761,158.422 C150.651,158.422 153.003,156.07 153.003,153.18 C153.003,150.285 150.651,147.93 147.761,147.93" fill="#4B3515"/>
    <path d="M56.206,182.805 C55.564,182.805 54.925,182.64 54.354,182.315 L44.05,176.464 C42.249,175.441 41.618,173.152 42.641,171.351 C43.662,169.551 45.949,168.919 47.753,169.942 L56.581,174.955 L68.626,170.777 C70.58,170.102 72.719,171.135 73.397,173.092 C74.076,175.048 73.04,177.184 71.083,177.863 L57.434,182.597 C57.035,182.736 56.62,182.805 56.206,182.805" fill="#4B3515"/>
    <path d="M82.393,214.555 C81.922,214.555 81.444,214.466 80.982,214.278 C71.068,210.249 55.957,204.121 54.957,203.755 C52.047,202.748 52.176,199.869 52.325,196.535 C52.409,194.672 52.587,192.116 52.856,188.936 C53.307,183.567 53.869,178.165 53.875,178.111 C54.09,176.05 55.95,174.558 57.993,174.77 C60.054,174.985 61.549,176.829 61.334,178.889 C60.609,185.845 59.914,193.938 59.784,197.601 C65.049,199.711 77.692,204.846 83.806,207.331 C85.724,208.11 86.647,210.298 85.867,212.217 C85.275,213.673 83.873,214.555 82.393,214.555" fill="#4B3515"/>
    <path d="M41.176,217.609 C40.155,217.609 39.138,217.195 38.398,216.38 C37.006,214.846 37.121,212.475 38.654,211.082 L53.685,197.441 C55.22,196.051 57.591,196.164 58.983,197.698 C60.375,199.232 60.26,201.603 58.727,202.996 L43.695,216.637 C42.977,217.288 42.075,217.609 41.176,217.609" fill="#4B3515"/>
    <path d="M128.162,93.351 C126.262,93.351 124.632,91.912 124.437,89.98 C122.47,70.608 128.55,41.86 132.491,25.955 C114.93,46.422 111.335,89.4 111.296,89.895 C111.134,91.959 109.323,93.501 107.264,93.34 C105.2,93.178 103.657,91.373 103.819,89.308 C104.013,86.836 108.886,28.541 137.295,12.173 C138.622,11.406 140.28,11.528 141.483,12.472 C142.687,13.418 143.195,15.001 142.768,16.471 C142.632,16.935 129.262,63.252 131.897,89.222 C132.107,91.283 130.606,93.123 128.546,93.332 C128.417,93.346 128.289,93.351 128.162,93.351" fill="#4B3515"/>
    <path d="M173.508,99.304 C171.523,99.304 169.866,97.747 169.766,95.743 C169.065,81.831 181.961,51.067 189.382,34.634 C156.033,56.699 153.457,90.841 153.433,91.215 C153.302,93.281 151.509,94.879 149.452,94.719 C147.385,94.587 145.816,92.805 145.948,90.738 C146.065,88.892 149.365,45.279 196.112,22.139 C197.55,21.426 199.281,21.708 200.419,22.84 C201.557,23.97 201.851,25.699 201.148,27.141 C194.26,41.294 176.54,81.139 177.256,95.366 C177.36,97.435 175.768,99.196 173.699,99.3 C173.635,99.302 173.571,99.304 173.508,99.304" fill="#4B3515"/>
  </g>
</svg>
